{
    "accessors" : [
        {
            "bufferView" : 0, 
            "componentType" : 5123, 
            "count" : 7452, 
            "max" : [
                1238
            ], 
            "min" : [
                0
            ], 
            "type" : "SCALAR"
        }, 
        {
            "bufferView" : 1, 
            "componentType" : 5126, 
            "count" : 1239, 
            "max" : [
                2.035161018371582, 
                2.764066219329834, 
                4.05559778213501
            ], 
            "min" : [
                -2.035161018371582, 
                -4.4314680099487305, 
                -1.2423853874206543
            ], 
            "type" : "VEC3"
        }, 
        {
            "bufferView" : 2, 
            "componentType" : 5126, 
            "count" : 1239, 
            "max" : [
                0.999969482421875, 
                0.9998779296875, 
                0.99981689453125
            ], 
            "min" : [
                -0.999969482421875, 
                -0.999969482421875, 
                -0.99981689453125
            ], 
            "type" : "VEC3"
        }
    ], 
    "asset" : {
        "generator" : "Khronos Blender glTF 2.0 exporter", 
        "version" : "2.0"
    }, 
    "bufferViews" : [
        {
            "buffer" : 0, 
            "byteLength" : 14904, 
            "byteOffset" : 0, 
            "target" : 34963
        }, 
        {
            "buffer" : 0, 
            "byteLength" : 14868, 
            "byteOffset" : 14904, 
            "target" : 34962
        }, 
        {
            "buffer" : 0, 
            "byteLength" : 14868, 
            "byteOffset" : 29772, 
            "target" : 34962
        }
    ], 
    "buffers" : [
        {
            "byteLength" : 44640, 
            "uri" : "misc_chair01.bin"
        }
    ], 
    "materials" : [
        {
            "name" : "Material", 
            "pbrMetallicRoughness" : {
                "baseColorFactor" : [
                    0.6400000190734865, 
                    0.6400000190734865, 
                    0.6400000190734865, 
                    1.0
                ], 
                "metallicFactor" : 0.0
            }
        }
    ], 
    "meshes" : [
        {
            "name" : "Cube", 
            "primitives" : [
                {
                    "attributes" : {
                        "NORMAL" : 2, 
                        "POSITION" : 1
                    }, 
                    "indices" : 0, 
                    "material" : 0
                }
            ]
        }
    ], 
    "nodes" : [
        {
            "name" : "BezierCurve", 
            "rotation" : [
                0.0, 
                0.0, 
                -0.7071070671081543, 
                0.7071065902709961
            ], 
            "scale" : [
                3.598198890686035, 
                3.598198890686035, 
                3.598198890686035
            ], 
            "translation" : [
                12.014413833618164, 
                4.649686813354492, 
                0.043618977069854736
            ]
        }, 
        {
            "name" : "Camera", 
            "rotation" : [
                0.48170700669288635, 
                0.3342514932155609, 
                -0.21292175352573395, 
                0.7816000580787659
            ], 
            "scale" : [
                1.0, 
                1.0, 
                0.9999998807907104
            ], 
            "translation" : [
                7.481131553649902, 
                5.34366512298584, 
                6.5076398849487305
            ]
        }, 
        {
            "mesh" : 0, 
            "name" : "Cube", 
            "scale" : [
                1.0, 
                1.6419528722763062, 
                0.48416972160339355
            ]
        }, 
        {
            "name" : "Lamp", 
            "rotation" : [
                0.16907575726509094, 
                0.7558802962303162, 
                -0.27217137813568115, 
                0.570947527885437
            ], 
            "scale" : [
                1.0, 
                1.0, 
                0.9999998807907104
            ], 
            "translation" : [
                4.076245307922363, 
                5.903861999511719, 
                -1.0054539442062378
            ]
        }
    ], 
    "scene" : 0, 
    "scenes" : [
        {
            "name" : "Scene", 
            "nodes" : [
                0, 
                2, 
                3, 
                1
            ]
        }
    ]
}
